<svg id="Layer_1" enable-background="new 0 0 511.997 511.997" height="512" viewBox="0 0 511.997 511.997" width="512" xmlns="http://www.w3.org/2000/svg"><g><g><path d="m445.999 511.997h-151.758c-8.284 0-15-6.716-15-15v-39.997h-87.239c-51.833 0-94.002-42.169-94.002-94.003v-36.997h-32c-5.268 0-10.149-2.763-12.861-7.28-2.711-4.517-2.854-10.125-.377-14.773l45.239-84.91v-37.537c0-48.296 18.93-93.825 53.303-128.197s79.898-53.303 128.195-53.303c48.296 0 93.824 18.93 128.197 53.303s53.303 79.901 53.303 128.197v315.497c0 8.284-6.716 15-15 15z" fill="#ffe4c1"/></g><path d="m407.696 53.303c-34.373-34.373-79.901-53.303-128.197-53.303-.084 0-.167.003-.25.003v497.151c.085 8.211 6.761 14.843 14.992 14.843h151.758c8.284 0 15-6.716 15-15v-315.497c0-48.296-18.931-93.825-53.303-128.197z" fill="#fdd1a3"/><g><path d="m342.449 220h-126.455c-30.603 0-55.5-24.897-55.5-55.5s24.897-55.5 55.5-55.5h.039c2.932-11.456 8.953-21.933 17.61-30.39 12.256-11.972 28.442-18.566 45.578-18.566s33.321 6.594 45.577 18.566c8.657 8.457 14.679 18.934 17.61 30.39h.04c30.603 0 55.5 24.897 55.5 55.5.001 30.603-24.896 55.5-55.499 55.5z" fill="#fff4f4"/></g><g><path d="m219.221 301c-8.284 0-15-6.716-15-15v-21c0-8.284 6.716-15 15-15s15 6.716 15 15v21c0 8.284-6.716 15-15 15z" fill="#7dd5f4"/></g><g><path d="m279.222 301c-8.284 0-15-6.716-15-15v-21c0-8.284 6.716-15 15-15s15 6.716 15 15v21c0 8.284-6.716 15-15 15z" fill="#7dd5f4"/></g><g><path d="m339.222 301c-8.284 0-15-6.716-15-15v-21c0-8.284 6.716-15 15-15s15 6.716 15 15v21c0 8.284-6.716 15-15 15z" fill="#4793ff"/></g><path d="m342.449 109h-.04c-2.932-11.456-8.953-21.933-17.61-30.39-12.256-11.972-28.441-18.566-45.577-18.566-.002 0-.003 0-.005 0v159.956h63.233c30.603 0 55.5-24.897 55.5-55.5-.001-30.603-24.898-55.5-55.501-55.5z" fill="#f6efea"/><path d="m279.222 250c-.002 0-.003 0-.005 0v51h.005c8.284 0 15-6.716 15-15v-21c0-8.284-6.716-15-15-15z" fill="#4793ff"/></g></svg>